# Blender 3.3.1
# www.blender.org
mtllib bossPartsBody.mtl
o 立方体
v -0.324198 -0.968121 0.324198
v -0.299097 -0.299097 1.600110
v -1.600388 -0.299097 0.299097
v -0.299097 0.299097 1.600110
v -0.324198 0.968121 0.324198
v -1.600388 0.299097 0.299097
v -0.324198 -0.968121 -0.324198
v -1.600388 -0.299097 -0.299097
v -0.299097 -0.299097 -1.600110
v -0.324198 0.968121 -0.324198
v -0.299097 0.299097 -1.600110
v -1.600388 0.299097 -0.299097
v 0.324198 -0.968121 0.324198
v 1.600388 -0.299097 0.299097
v 0.299097 -0.299097 1.600110
v 0.324198 0.968121 0.324198
v 0.299097 0.299097 1.600110
v 1.600388 0.299097 0.299097
v 0.324198 -0.968121 -0.324198
v 0.299097 -0.299097 -1.600110
v 1.600388 -0.299097 -0.299097
v 0.324198 0.968121 -0.324198
v 1.600388 0.299097 -0.299097
v 0.299097 0.299097 -1.600110
vn -0.0000 -0.0000 1.0000
vn 1.0000 -0.0000 -0.0000
vn -0.0000 1.0000 -0.0000
vn -1.0000 -0.0000 -0.0000
vn -0.0000 -0.0000 -1.0000
vn -0.4265 -0.7976 0.4266
vn -0.4265 0.7976 0.4266
vn -0.4265 -0.7976 -0.4266
vn -0.4265 0.7976 -0.4266
vn 0.4265 -0.7976 0.4266
vn 0.4265 0.7976 0.4266
vn 0.4265 -0.7976 -0.4266
vn 0.4265 0.7976 -0.4266
vn -0.4643 -0.8857 -0.0000
vn -0.7070 -0.0000 0.7072
vn -0.4643 0.8857 -0.0000
vn -0.7070 -0.0000 -0.7072
vn -0.0000 -0.8856 -0.4644
vn -0.0000 0.8856 -0.4644
vn 0.7070 -0.0000 -0.7072
vn 0.4643 -0.8857 -0.0000
vn 0.4643 0.8857 -0.0000
vn 0.7070 -0.0000 0.7072
vn -0.0000 -0.8856 0.4644
vn -0.0000 0.8856 0.4644
vn -0.0000 -1.0000 -0.0000
vt 0.749954 0.335357
vt 0.222685 0.500037
vt 0.445371 0.842538
vt 0.921204 0.499963
vt 0.111343 1.000000
vt 0.578703 0.500037
vt 0.445371 0.500037
vt 0.111343 0.500037
vt 0.334028 0.842538
vt 0.499963 0.421224
vt 0.335320 0.250009
vt 0.000000 1.000000
vt 0.334028 0.500037
vt 0.499963 0.078723
vt 0.664607 0.250027
vt 0.499963 0.421314
vt 0.111343 0.921277
vt 0.111343 0.578776
vt 0.499963 0.078813
vt 0.249973 0.164680
vt 0.000000 0.578776
vt 0.078723 0.000073
vt 0.421224 0.000000
vt 0.000000 0.921277
vt 0.835283 0.250009
vt 0.999927 0.078723
vt 0.222685 0.921277
vt 0.222685 0.578776
vt 0.999927 0.421224
vt 0.249991 0.335357
vt 0.111343 0.578776
vt 0.421241 0.499963
vt 0.078740 0.500037
vt 0.111343 0.921277
vt 0.749936 0.164680
vt 0.111343 0.500037
vt 0.578686 0.000073
vt 0.334028 0.842538
vt 0.222685 1.000000
vt 0.334028 0.500037
vt 0.921187 0.000000
vt 0.164643 0.250027
vt 0.111343 1.000000
vt 0.222685 0.500037
vt 0.000000 0.421314
vt 0.000000 0.500037
vt 0.000000 0.078813
vt 0.222685 0.842538
s 0
usemtl マテリアル.001
f 15/28/1 17/31/1 4/8/1 2/2/1
f 21/39/2 23/43/2 18/34/2 14/27/2
f 22/42/3 10/20/3 5/11/3 16/30/3
f 3/5/4 6/12/4 12/24/4 8/17/4
f 9/18/5 11/21/5 24/46/5 20/36/5
f 1/1/6 2/4/6 3/6/6
f 4/10/7 5/11/7 6/14/7
f 7/15/8 8/16/8 9/19/8
f 10/20/9 11/22/9 12/23/9
f 13/25/10 14/26/10 15/29/10
f 16/30/11 17/32/11 18/33/11
f 19/35/12 20/37/12 21/41/12
f 22/42/13 23/45/13 24/47/13
f 7/15/14 1/1/14 3/6/14 8/16/14
f 2/3/15 4/9/15 6/13/15 3/7/15
f 5/11/16 10/20/16 12/23/16 6/14/16
f 11/21/17 9/18/17 8/17/17 12/24/17
f 19/35/18 7/15/18 9/19/18 20/37/18
f 10/20/19 22/42/19 24/47/19 11/22/19
f 23/44/20 21/40/20 20/38/20 24/48/20
f 13/25/21 19/35/21 21/41/21 14/26/21
f 22/42/22 16/30/22 18/33/22 23/45/22
f 17/31/23 15/28/23 14/27/23 18/34/23
f 1/1/24 13/25/24 15/29/24 2/4/24
f 16/30/25 5/11/25 4/10/25 17/32/25
f 7/15/26 19/35/26 13/25/26 1/1/26
