# Blender 3.3.1
# www.blender.org
mtllib largeRock.mtl
o ICO球
v 0.000000 -3.091006 0.000000
v 1.503692 -1.119923 2.833369
v -0.884679 -1.727267 3.449253
v -1.933004 -1.382346 0.000000
v -0.597321 -1.382359 -3.140544
v 1.563836 -1.382358 -1.940945
v 0.665238 1.382359 4.097762
v -1.908296 1.382358 1.940945
v -1.780122 1.382358 -1.940945
v 0.597321 1.382359 -3.140544
v 2.608943 1.382346 0.000000
v 0.000000 4.125653 0.000000
v -0.351094 -2.629378 1.845952
v 0.919193 -2.629377 1.140851
v 0.324935 -1.989473 3.378709
v 2.161922 -2.016948 0.717722
v 0.919193 -2.629377 -1.140851
v -1.136190 -2.629370 0.000000
v -2.116414 -2.000945 1.351261
v -0.351094 -2.629378 -1.845952
v -1.487292 -1.625054 -1.845958
v 0.568103 -1.625058 -2.986821
v 3.394188 0.000000 0.578091
v 2.577791 0.000000 -1.140855
v -0.139843 -0.461968 4.355239
v 1.634173 -0.856921 3.452352
v -2.527230 0.000000 1.140855
v -1.270303 0.000000 2.986840
v -1.270303 0.000000 -2.986840
v -2.774942 0.000000 -1.140855
v 1.334942 0.584803 -3.734682
v 0.000000 0.000000 -3.691938
v 2.148644 1.625054 1.845958
v -0.568103 1.625058 3.744838
v -2.310227 2.094009 0.000000
v -0.784389 1.625058 -3.608788
v 2.110248 1.985180 -2.246438
v 0.351094 3.186731 1.845952
v 1.635557 3.677420 -0.237186
v -1.105031 3.505535 0.827193
v -1.135479 3.098333 -1.140851
v 0.601533 3.290779 -1.918476
vn 0.1478 -0.9525 0.2663
vn 0.5137 -0.7208 0.4654
vn -0.3717 -0.9148 0.1581
vn -0.3717 -0.9148 -0.1581
vn 0.1478 -0.9525 -0.2663
vn 0.7821 -0.4479 0.4332
vn -0.0714 -0.5526 0.8304
vn -0.9485 -0.2188 -0.2289
vn -0.7573 -0.3045 -0.5777
vn 0.7005 -0.4346 -0.5660
vn 0.6495 -0.7394 0.1773
vn -0.7712 -0.0018 0.6365
vn -0.8833 -0.4589 0.0959
vn -0.4807 -0.1377 -0.8660
vn 0.8198 -0.3308 -0.4674
vn 0.5834 0.6716 0.4567
vn -0.7193 0.5161 0.4650
vn -0.7872 0.4776 -0.3901
vn 0.3553 0.5035 -0.7875
vn 0.9195 0.3794 -0.1023
vn 0.2032 0.9195 -0.3364
vn 0.5125 0.7126 -0.4791
vn 0.2724 0.5184 -0.8106
vn -0.2978 0.8376 -0.4579
vn -0.3201 0.7927 -0.5188
vn -0.7825 0.4793 -0.3974
vn -0.5705 0.8060 -0.1579
vn -0.7147 0.6870 -0.1311
vn -0.8040 0.4848 0.3442
vn -0.1377 0.8720 0.4697
vn -0.2137 0.8027 0.5567
vn -0.0264 0.7783 0.6273
vn 0.2955 0.8731 0.3879
vn 0.5668 0.6524 0.5031
vn 0.9004 0.3996 0.1720
vn 0.9749 0.1282 -0.1820
vn 0.8985 -0.0322 -0.4378
vn 0.1544 0.6781 -0.7185
vn 0.3471 0.2142 -0.9130
vn -0.4768 -0.1862 -0.8590
vn -0.8609 0.0643 -0.5046
vn -0.8419 0.3900 -0.3729
vn -0.9814 0.1597 0.1065
vn -0.9257 0.2504 0.2835
vn -0.8052 0.0735 0.5884
vn -0.7654 0.0309 0.6428
vn -0.2255 0.2306 0.9466
vn 0.8102 0.1908 0.5543
vn 0.8110 0.1900 0.5533
vn 0.8352 0.5323 0.1383
vn -0.2216 0.4424 -0.8690
vn 0.1268 -0.3572 -0.9254
vn 0.0413 -0.3855 -0.9218
vn -0.7612 0.1887 -0.6204
vn -0.7339 -0.3220 -0.5982
vn -0.8025 -0.5852 -0.1168
vn -0.8258 0.0443 0.5623
vn -0.8216 -0.1099 0.5594
vn -0.8579 -0.0548 0.5108
vn 0.4406 -0.0674 0.8952
vn 0.3295 -0.4354 0.8378
vn 0.6372 -0.7485 0.1837
vn 0.8568 0.3165 -0.4070
vn 0.7808 -0.5027 -0.3709
vn 0.8438 -0.4473 -0.2966
vn 0.6340 -0.6223 -0.4592
vn 0.2772 -0.8209 -0.4993
vn -0.0603 -0.7246 -0.6865
vn -0.5690 -0.6437 -0.5118
vn -0.6375 -0.7212 -0.2711
vn -0.8353 -0.5338 -0.1315
vn -0.7926 -0.5065 -0.3394
vn -0.3700 -0.9156 0.1574
vn -0.3991 -0.8495 0.3451
vn 0.7498 -0.5855 -0.3084
vn 0.4420 -0.8970 -0.0000
vn 0.4488 -0.8936 -0.0000
vn -0.1655 -0.8820 0.4412
vn 0.1738 -0.9337 0.3131
vn 0.6561 -0.6615 0.3634
vt 0.181819 0.000000
vt 0.909091 0.000000
vt 0.727273 0.000000
vt 0.545455 0.000000
vt 0.363637 0.000000
vt 0.272728 0.157461
vt 1.000000 0.157461
vt 0.090910 0.157461
vt 0.818182 0.157461
vt 0.636364 0.157461
vt 0.454546 0.157461
vt 0.181819 0.314921
vt 0.000000 0.314921
vt 0.909091 0.314921
vt 0.727273 0.314921
vt 0.545455 0.314921
vt 0.363637 0.314921
vt 0.454546 0.472382
vt 0.636364 0.472382
vt 0.818182 0.472382
vt 0.090910 0.472382
vt 0.272728 0.472382
vt 0.954545 0.078731
vt 0.136365 0.078731
vt 0.318182 0.078731
vt 0.227273 0.078731
vt 0.181819 0.157461
vt 0.363637 0.157461
vt 0.500000 0.078731
vt 0.409092 0.078731
vt 0.772727 0.078731
vt 0.863636 0.078731
vt 0.909091 0.157461
vt 0.590909 0.078731
vt 0.681818 0.078731
vt 0.727273 0.157461
vt 0.545455 0.157461
vt 0.318182 0.236191
vt 0.409092 0.236191
vt 0.136365 0.236191
vt 0.227273 0.236191
vt 0.863636 0.236191
vt 0.045455 0.236191
vt 0.954545 0.236191
vt 0.681818 0.236191
vt 0.772727 0.236191
vt 0.500000 0.236191
vt 0.590909 0.236191
vt 0.272728 0.314921
vt 0.090910 0.314921
vt 0.818182 0.314921
vt 0.636364 0.314921
vt 0.454546 0.314921
vt 0.136365 0.393651
vt 0.227273 0.393651
vt 0.409092 0.393651
vt 0.318182 0.393651
vt 0.863636 0.393651
vt 0.045455 0.393651
vt 0.681818 0.393651
vt 0.772727 0.393651
vt 0.500000 0.393651
vt 0.590909 0.393651
s 0
usemtl マテリアル.001
f 1/1/1 14/26/1 13/24/1
f 2/6/2 14/25/2 16/28/2
f 1/2/3 13/23/3 18/32/3
f 1/3/4 18/31/4 20/35/4
f 1/4/5 20/34/5 17/29/5
f 2/6/6 16/28/6 23/38/6
f 3/8/7 15/27/7 25/40/7
f 4/9/8 19/33/8 27/42/8
f 5/10/9 21/36/9 29/45/9
f 6/11/10 22/37/10 31/47/10
f 2/6/11 23/38/11 26/41/11
f 3/8/12 25/40/12 28/43/12
f 4/9/13 27/42/13 30/46/13
f 5/10/14 29/45/14 32/48/14
f 6/11/15 31/47/15 24/39/15
f 7/12/16 33/49/16 38/55/16
f 8/13/17 34/50/17 40/59/17
f 9/15/18 35/51/18 41/61/18
f 10/16/19 36/52/19 42/63/19
f 11/17/20 37/53/20 39/56/20
f 39/56/21 42/62/21 12/18/21
f 39/56/22 37/53/22 42/62/22
f 37/53/23 10/16/23 42/62/23
f 42/63/24 41/60/24 12/19/24
f 42/63/25 36/52/25 41/60/25
f 36/52/26 9/15/26 41/60/26
f 41/61/27 40/58/27 12/20/27
f 41/61/28 35/51/28 40/58/28
f 35/51/29 8/14/29 40/58/29
f 40/59/30 38/54/30 12/21/30
f 40/59/31 34/50/31 38/54/31
f 34/50/32 7/12/32 38/54/32
f 38/55/33 39/57/33 12/22/33
f 38/55/34 33/49/34 39/57/34
f 33/49/35 11/17/35 39/57/35
f 24/39/36 37/53/36 11/17/36
f 24/39/37 31/47/37 37/53/37
f 31/47/38 10/16/38 37/53/38
f 32/48/39 36/52/39 10/16/39
f 32/48/40 29/45/40 36/52/40
f 29/45/41 9/15/41 36/52/41
f 30/46/42 35/51/42 9/15/42
f 30/46/43 27/42/43 35/51/43
f 27/42/44 8/14/44 35/51/44
f 28/43/45 34/50/45 8/13/45
f 28/43/46 25/40/46 34/50/46
f 25/40/47 7/12/47 34/50/47
f 26/41/48 33/49/48 7/12/48
f 26/41/49 23/38/49 33/49/49
f 23/38/50 11/17/50 33/49/50
f 31/47/51 32/48/51 10/16/51
f 31/47/52 22/37/52 32/48/52
f 22/37/53 5/10/53 32/48/53
f 29/45/54 30/46/54 9/15/54
f 29/45/55 21/36/55 30/46/55
f 21/36/56 4/9/56 30/46/56
f 27/42/57 28/44/57 8/14/57
f 27/42/58 19/33/58 28/44/58
f 19/33/59 3/7/59 28/44/59
f 25/40/60 26/41/60 7/12/60
f 25/40/61 15/27/61 26/41/61
f 15/27/62 2/6/62 26/41/62
f 23/38/63 24/39/63 11/17/63
f 23/38/64 16/28/64 24/39/64
f 16/28/65 6/11/65 24/39/65
f 17/29/66 22/37/66 6/11/66
f 17/29/67 20/34/67 22/37/67
f 20/34/68 5/10/68 22/37/68
f 20/35/69 21/36/69 5/10/69
f 20/35/70 18/31/70 21/36/70
f 18/31/71 4/9/71 21/36/71
f 18/32/72 19/33/72 4/9/72
f 18/32/73 13/23/73 19/33/73
f 13/23/74 3/7/74 19/33/74
f 16/28/75 17/30/75 6/11/75
f 16/28/76 14/25/76 17/30/76
f 14/25/77 1/5/77 17/30/77
f 13/24/78 15/27/78 3/8/78
f 13/24/79 14/26/79 15/27/79
f 14/26/80 2/6/80 15/27/80
