# Blender 3.3.1
# www.blender.org
mtllib bullet.mtl
o 立方体
v -0.275221 -0.275221 4.191755
v -1.000000 -1.000000 0.047553
v -0.275221 0.275221 4.191755
v -1.000000 1.000000 0.047553
v 0.275221 -0.275221 4.191755
v 1.000000 -1.000000 0.047553
v 0.275221 0.275221 4.191755
v 1.000000 1.000000 0.047553
v -0.354160 -0.354160 -1.667166
v -1.000000 -1.000000 -0.126492
v -1.000000 1.000000 -0.126492
v -0.354160 0.354160 -1.667166
v 0.354160 -0.354160 -1.667166
v 1.000000 -1.000000 -0.126492
v 1.000000 1.000000 -0.126492
v 0.354160 0.354160 -1.667166
vn -0.0000 -0.0000 1.0000
vn -0.0000 -1.0000 -0.0000
vn 1.0000 -0.0000 -0.0000
vn -0.0000 -0.0000 -1.0000
vn -0.9850 -0.0000 0.1723
vn 0.9850 -0.0000 0.1723
vn -0.0000 -0.9850 0.1723
vn -0.0000 0.9850 0.1723
vn -0.0000 1.0000 -0.0000
vn -0.9222 -0.0000 -0.3866
vn -0.0000 -0.9222 -0.3866
vn -0.0000 0.9222 -0.3866
vn 0.9222 -0.0000 -0.3866
vn -1.0000 -0.0000 -0.0000
vt 0.340597 0.000000
vt 0.088540 0.729658
vt 0.659403 0.000000
vt 0.750000 0.509963
vt 0.250000 0.509963
vt 0.088540 0.798463
vt 0.409403 0.000000
vt 0.909403 0.729658
vt 1.000000 0.219695
vt 0.500000 0.509963
vt 0.157345 0.729658
vt 0.090597 0.729658
vt 0.590597 0.000000
vt 0.000000 0.219695
vt 0.500000 0.509963
vt 0.159403 0.729658
vt 0.157345 0.798463
vt 0.840597 0.729658
vt 0.250000 0.219695
vt 0.750000 0.219695
vt 0.088540 0.729658
vt 0.330730 0.729658
vt 0.669270 0.729658
vt 0.750000 0.531659
vt 0.250000 0.531660
vt 1.000000 0.197998
vt 0.500000 0.531660
vt 0.419270 0.729658
vt 0.088540 0.818198
vt 0.919270 0.000000
vt 0.000000 0.729658
vt 0.580730 0.729658
vt 0.080730 0.000000
vt 0.500000 0.531659
vt 0.000000 0.197998
vt 0.250000 0.197998
vt 0.750000 0.197998
vt 0.000000 0.818198
vt 0.830730 0.000000
vt 0.169270 0.000000
s 0
usemtl マテリアル
f 7/17/1 1/2/1 5/11/1
f 14/34/2 2/4/2 10/24/2
f 15/36/3 6/14/3 14/35/3
f 12/29/4 13/31/4 9/21/4
f 3/7/5 2/5/5 1/1/5
f 5/12/6 8/19/6 7/16/6
f 6/15/7 1/3/7 2/4/7
f 4/9/8 7/18/8 8/20/8
f 11/26/9 8/20/9 15/37/9
f 9/22/10 11/27/10 12/28/10
f 10/24/11 13/32/11 14/34/11
f 15/37/12 12/30/12 11/26/12
f 14/35/13 16/40/13 15/36/13
f 4/10/14 10/25/14 2/5/14
f 7/17/1 3/6/1 1/2/1
f 14/34/2 6/15/2 2/4/2
f 15/36/3 8/19/3 6/14/3
f 12/29/4 16/38/4 13/31/4
f 3/7/5 4/10/5 2/5/5
f 5/12/6 6/14/6 8/19/6
f 6/15/7 5/13/7 1/3/7
f 4/9/8 3/8/8 7/18/8
f 11/26/9 4/9/9 8/20/9
f 9/22/10 10/25/10 11/27/10
f 10/24/11 9/23/11 13/32/11
f 15/37/12 16/39/12 12/30/12
f 14/35/13 13/33/13 16/40/13
f 4/10/14 11/27/14 10/25/14
