# Blender 3.3.1
# www.blender.org
mtllib bossPartsShield.mtl
o Cube
v 1.000000 1.000000 -0.198715
v 1.000000 -1.000000 -0.198715
v 1.000000 1.000000 0.198715
v 1.000000 -1.000000 0.198715
v -1.000000 1.000000 -0.198715
v -1.000000 -1.000000 -0.198715
v -1.000000 1.000000 0.198715
v -1.000000 -1.000000 0.198715
v 0.000000 -1.990222 -0.198715
v 0.000000 1.277094 0.198715
v 0.000000 -1.990222 0.198715
v 0.000000 1.277094 -0.198715
vn -0.2670 0.9637 -0.0000
vn -0.0000 -0.0000 1.0000
vn -1.0000 -0.0000 -0.0000
vn 0.7036 -0.7106 -0.0000
vn 1.0000 -0.0000 -0.0000
vn -0.0000 -0.0000 -1.0000
vn -0.7036 -0.7106 -0.0000
vn 0.2670 0.9637 -0.0000
vt 1.000000 0.498370
vt 0.666667 0.046182
vt 0.000000 0.544553
vt 1.000000 0.165037
vt 0.666667 0.379516
vt 0.666667 0.498370
vt 0.000000 0.046182
vt 0.000000 0.877886
vt 0.666667 0.165037
vt 0.000000 0.379516
vt 0.333333 0.544553
vt 0.666667 0.996741
vt 0.333333 0.046182
vt 0.333333 0.379516
vt 0.666667 0.663407
vt 0.333333 0.877886
vt 0.333333 0.046182
vt 1.000000 0.996741
vt 0.333333 0.379516
vt 1.000000 0.663408
vt 1.000000 0.000000
vt 0.500000 0.544553
vt 0.666667 0.498370
vt 0.166667 0.000000
vt 0.166667 0.877886
vt 0.666667 0.000000
vt 1.000000 0.498370
vt 0.166667 0.544553
vt 0.500000 0.000000
vt 0.166667 0.544553
s 0
usemtl Material
f 12/30/1 5/11/1 7/16/1 10/25/1
f 11/28/2 10/24/2 7/17/2 8/19/2
f 8/20/3 7/18/3 5/12/3 6/15/3
f 9/21/4 2/4/4 4/9/4 11/26/4
f 2/4/5 1/1/5 3/6/5 4/9/5
f 9/22/6 12/29/6 1/2/6 2/5/6
f 6/14/6 5/13/6 12/29/6 9/22/6
f 6/15/7 9/23/7 11/27/7 8/20/7
f 4/10/2 3/7/2 10/24/2 11/28/2
f 1/3/8 12/30/8 10/25/8 3/8/8
