# Blender 3.3.1
# www.blender.org
mtllib bossPartsCoreStand.mtl
o 円柱
v 0.000000 0.016526 -1.000000
v 0.195090 0.618524 0.980785
v 0.195090 0.016526 -0.980785
v 0.148753 0.854895 0.747834
v 0.382683 0.016526 -0.923880
v 0.382683 0.618524 0.923880
v 0.555570 0.016526 -0.831470
v 0.291791 0.854895 0.704444
v 0.707107 0.016526 -0.707107
v 0.555570 0.618524 0.831470
v 0.831470 0.016526 -0.555570
v 0.423614 0.854895 0.633983
v 0.923880 0.016526 -0.382683
v 0.707107 0.618524 0.707107
v 0.980785 0.016526 -0.195090
v 0.539158 0.854895 0.539158
v 1.000000 0.016526 0.000000
v 0.831470 0.618524 0.555570
v 0.980785 0.016526 0.195090
v 0.633983 0.854895 0.423614
v 0.923880 0.016526 0.382683
v 0.923880 0.618524 0.382683
v 0.831470 0.016526 0.555570
v 0.704444 0.854895 0.291791
v 0.707107 0.016526 0.707107
v 0.980785 0.618524 0.195090
v 0.555570 0.016526 0.831470
v 0.747834 0.854895 0.148753
v 0.382683 0.016526 0.923880
v 1.000000 0.618524 0.000000
v 0.195090 0.016526 0.980785
v 0.762485 0.854895 0.000000
v 0.000000 0.016526 1.000000
v 0.980785 0.618524 -0.195090
v -0.195090 0.016526 0.980785
v 0.747834 0.854895 -0.148753
v -0.382683 0.016526 0.923880
v 0.923880 0.618524 -0.382683
v -0.555570 0.016526 0.831470
v 0.704444 0.854895 -0.291791
v -0.707107 0.016526 0.707107
v 0.831470 0.618524 -0.555570
v -0.831470 0.016526 0.555570
v 0.633983 0.854895 -0.423614
v -0.923880 0.016526 0.382683
v 0.707107 0.618524 -0.707107
v -0.980785 0.016526 0.195090
v 0.539158 0.854895 -0.539158
v -1.000000 0.016526 0.000000
v 0.555570 0.618524 -0.831470
v -0.980785 0.016526 -0.195090
v 0.423614 0.854895 -0.633983
v -0.923880 0.016526 -0.382683
v 0.382683 0.618524 -0.923880
v -0.831470 0.016526 -0.555570
v 0.291791 0.854895 -0.704444
v -0.707107 0.016526 -0.707107
v -0.000000 0.854895 -0.762485
v -0.555570 0.016526 -0.831470
v -0.000000 0.618524 -1.000000
v -0.382683 0.016526 -0.923880
v 0.195090 0.618524 -0.980785
v -0.195090 0.016526 -0.980785
v 0.148753 0.854895 -0.747834
v 0.000000 0.362583 -0.762485
v 0.000000 0.126211 -1.000000
v 0.148753 0.362583 -0.747834
v 0.195090 0.126211 -0.980785
v 0.291791 0.362583 -0.704444
v 0.382683 0.126211 -0.923880
v 0.423614 0.362583 -0.633983
v 0.555570 0.126211 -0.831470
v 0.539158 0.362583 -0.539158
v 0.707107 0.126211 -0.707107
v 0.633983 0.362583 -0.423614
v 0.831470 0.126211 -0.555570
v 0.704444 0.362583 -0.291791
v 0.923880 0.126211 -0.382683
v 0.747834 0.362583 -0.148753
v 0.980785 0.126211 -0.195090
v 0.762485 0.362583 0.000000
v 1.000000 0.126211 0.000000
v 0.747834 0.362583 0.148753
v 0.980785 0.126211 0.195090
v 0.704444 0.362583 0.291791
v 0.923880 0.126211 0.382683
v 0.633983 0.362583 0.423614
v 0.831470 0.126211 0.555570
v 0.539158 0.362583 0.539158
v 0.707107 0.126211 0.707107
v 0.423614 0.362583 0.633983
v 0.555570 0.126211 0.831470
v 0.291791 0.362583 0.704444
v 0.382683 0.126211 0.923880
v 0.148753 0.362583 0.747834
v 0.195090 0.126211 0.980785
v 0.000000 0.362583 0.762485
v 0.000000 0.126211 1.000000
v -0.148753 0.362583 0.747834
v -0.195090 0.126211 0.980785
v -0.291791 0.362583 0.704444
v -0.382683 0.126211 0.923880
v -0.423614 0.362583 0.633983
v -0.555570 0.126211 0.831470
v -0.539158 0.362583 0.539158
v -0.707107 0.126211 0.707107
v -0.633983 0.362583 0.423614
v -0.831470 0.126211 0.555570
v -0.704444 0.362583 0.291791
v -0.923880 0.126211 0.382683
v -0.747834 0.362583 0.148753
v -0.980785 0.126211 0.195090
v -0.762485 0.362583 0.000000
v -1.000000 0.126211 0.000000
v -0.747834 0.362583 -0.148753
v -0.980785 0.126211 -0.195090
v -0.704444 0.362583 -0.291791
v -0.923880 0.126211 -0.382683
v -0.633983 0.362583 -0.423614
v -0.831470 0.126211 -0.555570
v -0.539158 0.362583 -0.539158
v -0.707107 0.126211 -0.707107
v -0.423614 0.362583 -0.633983
v -0.555570 0.126211 -0.831470
v -0.291791 0.362583 -0.704444
v -0.382683 0.126211 -0.923880
v -0.148753 0.362583 -0.747834
v -0.195090 0.126211 -0.980785
v -0.000000 0.854895 0.762485
v -0.000000 0.618524 1.000000
v -0.148753 0.854895 0.747834
v -0.195090 0.618524 0.980785
v -0.291791 0.854895 0.704444
v -0.382683 0.618524 0.923880
v -0.423614 0.854895 0.633983
v -0.555570 0.618524 0.831470
v -0.539158 0.854895 0.539158
v -0.707107 0.618524 0.707107
v -0.633983 0.854895 0.423614
v -0.831470 0.618524 0.555570
v -0.704444 0.854895 0.291791
v -0.923880 0.618524 0.382683
v -0.747834 0.854895 0.148753
v -0.980785 0.618524 0.195090
v -0.762485 0.854895 0.000000
v -1.000000 0.618524 0.000000
v -0.747834 0.854895 -0.148753
v -0.980785 0.618524 -0.195090
v -0.704444 0.854895 -0.291791
v -0.923880 0.618524 -0.382683
v -0.633983 0.854895 -0.423614
v -0.831470 0.618524 -0.555570
v -0.539158 0.854895 -0.539158
v -0.707107 0.618524 -0.707107
v -0.423614 0.854895 -0.633983
v -0.555570 0.618524 -0.831470
v -0.291791 0.854895 -0.704444
v -0.382683 0.618524 -0.923880
v -0.148753 0.854895 -0.747834
v -0.195090 0.618524 -0.980785
vn -0.0980 -0.0000 -0.9952
vn 0.4714 -0.0000 -0.8819
vn 0.6344 -0.0000 -0.7730
vn 0.7730 -0.0000 -0.6344
vn 0.8819 -0.0000 -0.4714
vn 0.9569 -0.0000 -0.2903
vn 0.9952 -0.0000 -0.0980
vn 0.9952 -0.0000 0.0980
vn 0.9569 -0.0000 0.2903
vn 0.8819 -0.0000 0.4714
vn 0.7730 -0.0000 0.6344
vn 0.6344 -0.0000 0.7730
vn 0.4714 -0.0000 0.8819
vn 0.2903 -0.0000 0.9569
vn 0.0980 -0.0000 0.9952
vn -0.0980 -0.0000 0.9952
vn -0.2903 -0.0000 0.9569
vn -0.4714 -0.0000 0.8819
vn -0.6344 -0.0000 0.7730
vn -0.7730 -0.0000 0.6344
vn -0.8819 -0.0000 0.4714
vn -0.9569 -0.0000 0.2903
vn -0.9952 -0.0000 0.0980
vn -0.9952 -0.0000 -0.0980
vn -0.9569 -0.0000 -0.2903
vn -0.8819 -0.0000 -0.4714
vn -0.7730 -0.0000 -0.6344
vn -0.6344 -0.0000 -0.7730
vn -0.4714 -0.0000 -0.8819
vn -0.2903 -0.0000 -0.9569
vn 0.0980 -0.0000 -0.9952
vn 0.0693 0.7071 -0.7037
vn 0.2903 -0.0000 -0.9569
vn -0.0000 -1.0000 -0.0000
vn -0.0000 1.0000 -0.0000
vn 0.2053 0.7071 -0.6767
vn 0.3333 0.7071 -0.6236
vn 0.4486 0.7071 -0.5466
vn 0.5466 0.7071 -0.4486
vn 0.6236 0.7071 -0.3333
vn 0.6767 0.7071 -0.2053
vn 0.7037 0.7071 -0.0693
vn 0.7037 0.7071 0.0693
vn 0.6767 0.7071 0.2053
vn 0.6236 0.7071 0.3333
vn 0.5466 0.7071 0.4486
vn 0.4486 0.7071 0.5466
vn 0.3333 0.7071 0.6236
vn 0.2053 0.7071 0.6767
vn 0.0693 0.7071 0.7037
vn -0.0693 0.7071 0.7037
vn -0.2053 0.7071 0.6767
vn -0.3333 0.7071 0.6236
vn -0.4486 0.7071 0.5466
vn -0.5466 0.7071 0.4486
vn -0.6236 0.7071 0.3333
vn -0.6767 0.7071 0.2053
vn -0.7037 0.7071 0.0693
vn -0.7037 0.7071 -0.0693
vn -0.6767 0.7071 -0.2053
vn -0.6236 0.7071 -0.3333
vn -0.5466 0.7071 -0.4486
vn -0.4486 0.7071 -0.5466
vn -0.3333 0.7071 -0.6236
vn -0.2053 0.7071 -0.6767
vn -0.0693 0.7071 -0.7037
vt 0.923691 0.369253
vt 0.777219 0.711687
vt 0.000000 0.702565
vt 0.484275 0.402980
vt 0.474970 0.312767
vt 0.777219 0.672029
vt 0.009305 0.655784
vt 0.843628 0.947072
vt 0.419669 0.295991
vt 0.484275 0.711687
vt 0.777219 0.627962
vt 0.027558 0.611718
vt 0.484275 0.442638
vt 0.456717 0.356833
vt 0.777219 0.581182
vt 0.054057 0.572059
vt 0.843628 0.916833
vt 0.405752 0.329591
vt 0.777219 0.533485
vt 0.087784 0.538333
vt 0.484275 0.486704
vt 0.430218 0.396492
vt 0.777219 0.486704
vt 0.127443 0.511834
vt 0.843628 0.883233
vt 0.385546 0.359830
vt 0.777219 0.442638
vt 0.171509 0.493581
vt 0.396491 0.430218
vt 0.484275 0.533485
vt 0.777219 0.402980
vt 0.218289 0.484276
vt 0.843628 0.847564
vt 0.359830 0.385546
vt 0.777219 0.369253
vt 0.630747 0.711687
vt 0.265986 0.484276
vt 0.356833 0.456717
vt 0.484275 0.581182
vt 0.630747 0.672029
vt 0.312767 0.493581
vt 0.329591 0.405752
vt 0.843628 0.811195
vt 0.630747 0.627962
vt 0.356833 0.511834
vt 0.312767 0.474970
vt 0.484275 0.627962
vt 0.630747 0.581182
vt 0.396492 0.538333
vt 0.295991 0.419669
vt 0.843628 0.775526
vt 0.630747 0.533485
vt 0.430218 0.572060
vt 0.265986 0.484275
vt 0.484275 0.672029
vt 0.630747 0.486704
vt 0.456717 0.611718
vt 0.260322 0.426764
vt 0.843628 0.741926
vt 0.630747 0.442638
vt 0.474970 0.655784
vt 0.218289 0.484275
vt 0.630747 0.369253
vt 0.484275 0.711687
vt 0.630747 0.402980
vt 0.484275 0.702565
vt 0.223954 0.426764
vt 0.604060 0.998505
vt 0.843628 0.711687
vt 0.630747 0.369253
vt 1.000000 0.342434
vt 0.484275 0.750262
vt 0.171509 0.474970
vt 0.630747 0.402980
vt 1.000000 0.302776
vt 0.474970 0.797042
vt 0.188284 0.419669
vt 0.604060 0.972788
vt 1.000000 0.258710
vt 0.456717 0.841109
vt 0.630747 0.442638
vt 0.127442 0.456717
vt 1.000000 0.211929
vt 0.430218 0.880767
vt 0.604060 0.942549
vt 0.154684 0.405752
vt 1.000000 0.164232
vt 0.396491 0.914494
vt 0.630747 0.486704
vt 0.087784 0.430218
vt 1.000000 0.117452
vt 0.356833 0.940993
vt 0.604060 0.908949
vt 0.124445 0.385546
vt 1.000000 0.073385
vt 0.312767 0.959246
vt 0.630747 0.533485
vt 0.054057 0.396491
vt 1.000000 0.033727
vt 0.265986 0.968551
vt 0.604060 0.873280
vt 0.098729 0.359830
vt 1.000000 0.000000
vt 0.923691 0.711687
vt 0.218289 0.968551
vt 0.027558 0.356833
vt 0.630747 0.581182
vt 0.923691 0.672029
vt 0.171509 0.959246
vt 0.604060 0.836912
vt 0.078524 0.329591
vt 0.923691 0.627962
vt 0.127442 0.940993
vt 0.009305 0.312767
vt 0.630747 0.627962
vt 0.923691 0.581182
vt 0.087784 0.914494
vt 0.064606 0.295991
vt 0.604060 0.801242
vt 0.923691 0.533485
vt 0.054057 0.880767
vt 0.057511 0.223954
vt 0.604060 0.737404
vt 0.923691 0.486704
vt 0.027558 0.841108
vt 0.777219 0.369253
vt 0.000000 0.218289
vt 0.630747 0.711687
vt 0.923691 0.442638
vt 0.009305 0.797042
vt 0.000000 0.265986
vt 0.630747 0.672029
vt 0.923691 0.402980
vt 0.000000 0.750262
vt 0.057511 0.260322
vt 0.604060 0.767643
vt 0.723844 0.737404
vt 0.484275 0.166442
vt 0.897003 0.369253
vt 0.750532 0.711687
vt 0.723844 0.767643
vt 0.484275 0.202811
vt 0.750532 0.672029
vt 0.723844 0.801242
vt 0.491371 0.238480
vt 0.750532 0.627962
vt 0.723844 0.836912
vt 0.505288 0.272080
vt 0.750532 0.581182
vt 0.723844 0.873280
vt 0.525493 0.302319
vt 0.750532 0.533485
vt 0.723844 0.908949
vt 0.551209 0.328035
vt 0.750532 0.486704
vt 0.723844 0.942549
vt 0.581448 0.348240
vt 0.750532 0.442638
vt 0.723844 0.972788
vt 0.615048 0.362158
vt 0.750532 0.402980
vt 0.723844 0.998505
vt 0.963413 0.711687
vt 0.650718 0.369253
vt 0.750532 0.369253
vt 0.604060 0.711687
vt 0.963413 0.741926
vt 0.687086 0.369253
vt 0.604060 0.672029
vt 0.963413 0.775526
vt 0.722755 0.362158
vt 0.604060 0.627962
vt 0.963413 0.811195
vt 0.756355 0.348240
vt 0.604060 0.581182
vt 0.963413 0.847564
vt 0.786594 0.328035
vt 0.604060 0.533485
vt 0.963413 0.883233
vt 0.812311 0.302319
vt 0.604060 0.486704
vt 0.963413 0.916833
vt 0.832516 0.272080
vt 0.604060 0.442638
vt 0.963413 0.947072
vt 0.604060 0.711687
vt 0.846433 0.238480
vt 0.604060 0.402980
vt 0.604060 0.737404
vt 0.853528 0.202811
vt 0.604060 0.369253
vt 0.973312 0.342434
vt 0.604060 0.767643
vt 0.853528 0.166442
vt 0.973312 0.302776
vt 0.604060 0.801242
vt 0.846433 0.130773
vt 0.973312 0.258710
vt 0.604060 0.836912
vt 0.832516 0.097173
vt 0.973312 0.211929
vt 0.604060 0.873280
vt 0.812311 0.066934
vt 0.973312 0.164232
vt 0.604060 0.908949
vt 0.786594 0.041218
vt 0.973312 0.117452
vt 0.604060 0.942549
vt 0.756355 0.021013
vt 0.973312 0.073385
vt 0.604060 0.972788
vt 0.722755 0.007095
vt 0.973312 0.033727
vt 0.604060 0.998505
vt 0.843628 0.711687
vt 0.687086 0.000000
vt 0.897003 0.711687
vt 0.973312 0.000000
vt 0.843628 0.741926
vt 0.650718 0.000000
vt 0.897003 0.672029
vt 0.843628 0.775526
vt 0.615048 0.007095
vt 0.897003 0.627962
vt 0.843628 0.811195
vt 0.581448 0.021013
vt 0.897003 0.581182
vt 0.843628 0.847564
vt 0.551209 0.041218
vt 0.897003 0.533485
vt 0.843628 0.883233
vt 0.525493 0.066934
vt 0.897003 0.486704
vt 0.843628 0.916833
vt 0.505288 0.097173
vt 0.897003 0.442638
vt 0.723844 0.711687
vt 0.843628 0.947072
vt 0.491371 0.130773
vt 0.897003 0.402980
vt 0.426764 0.260322
vt 0.484275 0.737404
vt 0.484275 0.369253
vt 0.484275 0.265986
vt 0.853528 0.342434
vt 0.426764 0.223954
vt 0.484275 0.767643
vt 0.484275 0.218289
vt 0.853528 0.302776
vt 0.419669 0.188284
vt 0.484275 0.801242
vt 0.474970 0.171509
vt 0.853528 0.258710
vt 0.405752 0.154684
vt 0.484275 0.836912
vt 0.456717 0.127443
vt 0.853528 0.211929
vt 0.385546 0.124445
vt 0.484275 0.873280
vt 0.430218 0.087784
vt 0.853528 0.164232
vt 0.484275 0.908949
vt 0.359830 0.098729
vt 0.853528 0.117452
vt 0.396492 0.054057
vt 0.484275 0.942549
vt 0.329591 0.078524
vt 0.853528 0.073385
vt 0.356833 0.027558
vt 0.484275 0.972788
vt 0.295991 0.064606
vt 0.853528 0.033727
vt 0.312767 0.009305
vt 0.484275 0.998505
vt 0.260322 0.057511
vt 0.723844 0.711687
vt 0.777219 0.711687
vt 0.853528 0.000000
vt 0.265986 0.000000
vt 0.223954 0.057511
vt 0.723844 0.741926
vt 0.218289 0.000000
vt 0.777219 0.672029
vt 0.188284 0.064606
vt 0.723844 0.775526
vt 0.171509 0.009305
vt 0.777219 0.627962
vt 0.154684 0.078524
vt 0.723844 0.811195
vt 0.127443 0.027558
vt 0.777219 0.581182
vt 0.124445 0.098729
vt 0.723844 0.847564
vt 0.087784 0.054057
vt 0.777219 0.533485
vt 0.098729 0.124445
vt 0.723844 0.883233
vt 0.054057 0.087784
vt 0.777219 0.486704
vt 0.723844 0.916833
vt 0.078524 0.154684
vt 0.777219 0.442638
vt 0.027558 0.127442
vt 0.604060 0.711687
vt 0.723844 0.947072
vt 0.064606 0.188284
vt 0.777219 0.402980
vt 0.009305 0.171509
s 0
usemtl マテリアル
f 63/133/1 128/240/1 66/139/1 1/1/1
f 5/11/2 70/146/2 72/149/2 7/15/2
f 7/15/3 72/149/3 74/152/3 9/19/3
f 9/19/4 74/152/4 76/155/4 11/23/4
f 11/23/5 76/155/5 78/158/5 13/27/5
f 13/27/6 78/158/6 80/161/6 15/31/6
f 15/31/7 80/161/7 82/165/7 17/35/7
f 17/36/8 82/166/8 84/169/8 19/40/8
f 19/40/9 84/169/9 86/172/9 21/44/9
f 21/44/10 86/172/10 88/175/10 23/48/10
f 23/48/11 88/175/11 90/178/11 25/52/11
f 25/52/12 90/178/12 92/181/12 27/56/12
f 27/56/13 92/181/13 94/184/13 29/60/13
f 29/60/14 94/184/14 96/188/14 31/65/14
f 31/65/15 96/188/15 98/191/15 33/70/15
f 33/71/16 98/192/16 100/195/16 35/75/16
f 35/75/17 100/195/17 102/198/17 37/79/17
f 37/79/18 102/198/18 104/201/18 39/83/18
f 39/83/19 104/201/19 106/204/19 41/87/19
f 41/87/20 106/204/20 108/207/20 43/91/20
f 43/91/21 108/207/21 110/210/21 45/95/21
f 45/95/22 110/210/22 112/213/22 47/99/22
f 47/99/23 112/213/23 114/218/23 49/103/23
f 49/104/24 114/217/24 116/221/24 51/108/24
f 51/108/25 116/221/25 118/224/25 53/112/25
f 53/112/26 118/224/26 120/227/26 55/116/26
f 55/116/27 120/227/27 122/230/27 57/120/27
f 57/120/28 122/230/28 124/233/28 59/124/28
f 59/124/29 124/233/29 126/236/29 61/129/29
f 61/129/30 126/236/30 128/240/30 63/133/30
f 1/2/31 66/140/31 68/143/31 3/6/31
f 62/131/32 60/127/32 58/122/32 64/135/32
f 3/6/33 68/143/33 70/146/33 5/11/33
f 31/66/34 47/100/34 63/134/34
f 116/221/24 114/217/24 146/277/24 148/283/24
f 77/156/22 79/159/22 36/78/22 40/85/22
f 98/191/15 96/188/15 2/4/15 130/243/15
f 80/161/6 78/158/6 38/81/6 34/74/6
f 111/211/7 113/214/7 145/274/7 143/270/7
f 93/182/30 95/185/30 4/8/30 8/17/30
f 114/218/23 112/213/23 144/272/23 146/278/23
f 75/153/21 77/156/21 40/85/21 44/93/21
f 96/188/14 94/184/14 6/13/14 2/4/14
f 78/158/5 76/155/5 42/89/5 38/81/5
f 109/208/6 111/211/6 143/270/6 141/266/6
f 127/237/15 65/137/15 58/123/15 159/304/15
f 91/179/29 93/182/29 8/17/29 12/25/29
f 112/213/22 110/210/22 142/268/22 144/272/22
f 66/139/1 128/240/1 160/307/1 60/126/1
f 73/150/20 75/153/20 44/93/20 48/101/20
f 94/184/13 92/181/13 10/21/13 6/13/13
f 125/234/14 127/238/14 159/305/14 157/300/14
f 76/155/4 74/152/4 46/97/4 42/89/4
f 107/205/5 109/208/5 141/266/5 139/262/5
f 128/240/30 126/236/30 158/302/30 160/307/30
f 89/176/28 91/179/28 12/25/28 16/33/28
f 110/210/21 108/207/21 140/264/21 142/268/21
f 71/147/19 73/150/19 48/101/19 52/110/19
f 92/181/12 90/178/12 14/30/12 10/21/12
f 123/231/13 125/234/13 157/300/13 155/297/13
f 74/152/3 72/149/3 50/107/3 46/97/3
f 105/202/4 107/205/4 139/262/4 137/259/4
f 126/236/29 124/233/29 156/299/29 158/302/29
f 87/173/27 89/176/27 16/33/27 20/43/27
f 108/207/20 106/204/20 138/261/20 140/264/20
f 69/144/18 71/147/18 52/110/18 56/119/18
f 101/197/35 85/171/35 69/145/35
f 54/114/36 62/131/36 64/135/36 56/118/36
f 50/106/37 54/114/37 56/118/37 52/111/37
f 46/98/38 50/106/38 52/111/38 48/102/38
f 42/90/39 46/98/39 48/102/39 44/94/39
f 38/82/40 42/90/40 44/94/40 40/86/40
f 34/73/41 38/82/41 40/86/41 36/77/41
f 30/62/42 34/73/42 36/77/42 32/67/42
f 26/54/43 30/62/43 32/67/43 28/58/43
f 22/46/44 26/54/44 28/58/44 24/50/44
f 18/38/45 22/46/45 24/50/45 20/42/45
f 14/29/46 18/38/46 20/42/46 16/34/46
f 10/22/47 14/29/47 16/34/47 12/26/47
f 6/14/48 10/22/48 12/26/48 8/18/48
f 2/5/49 6/14/49 8/18/49 4/9/49
f 130/244/50 2/5/50 4/9/50 129/241/50
f 132/248/51 130/244/51 129/241/51 131/246/51
f 134/252/52 132/248/52 131/246/52 133/250/52
f 136/256/53 134/252/53 133/250/53 135/254/53
f 138/260/54 136/256/54 135/254/54 137/258/54
f 140/265/55 138/260/55 137/258/55 139/263/55
f 142/269/56 140/265/56 139/263/56 141/267/56
f 144/273/57 142/269/57 141/267/57 143/271/57
f 146/279/58 144/273/58 143/271/58 145/275/58
f 148/282/59 146/279/59 145/275/59 147/280/59
f 150/286/60 148/282/60 147/280/60 149/284/60
f 152/290/61 150/286/61 149/284/61 151/288/61
f 154/294/62 152/290/62 151/288/62 153/292/62
f 156/298/63 154/294/63 153/292/63 155/296/63
f 158/303/64 156/298/64 155/296/64 157/301/64
f 160/308/65 158/303/65 157/301/65 159/306/65
f 60/127/66 160/308/66 159/306/66 58/122/66
f 95/186/1 97/189/1 129/242/1 4/10/1
f 113/215/8 115/219/8 147/281/8 145/276/8
f 82/165/7 80/161/7 34/74/7 30/63/7
f 100/195/16 98/192/16 130/245/16 132/249/16
f 79/159/23 81/162/23 32/68/23 36/78/23
f 118/224/25 116/221/25 148/283/25 150/287/25
f 97/189/31 99/193/31 131/247/31 129/242/31
f 115/219/9 117/222/9 149/285/9 147/281/9
f 84/169/8 82/166/8 30/64/8 26/55/8
f 102/198/17 100/195/17 132/249/17 134/253/17
f 81/163/24 83/167/24 28/59/24 32/69/24
f 68/143/31 66/140/31 60/128/31 62/132/31
f 120/227/26 118/224/26 150/287/26 152/291/26
f 99/193/33 101/196/33 133/251/33 131/247/33
f 117/222/10 119/225/10 151/289/10 149/285/10
f 86/172/9 84/169/9 26/55/9 22/47/9
f 65/137/16 67/141/16 64/136/16 58/123/16
f 104/201/18 102/198/18 134/253/18 136/257/18
f 83/167/25 85/170/25 24/51/25 28/59/25
f 122/230/27 120/227/27 152/291/27 154/295/27
f 101/196/2 103/199/2 135/255/2 133/251/2
f 70/146/33 68/143/33 62/132/33 54/115/33
f 119/225/11 121/228/11 153/293/11 151/289/11
f 88/175/10 86/172/10 22/47/10 18/39/10
f 67/141/17 69/144/17 56/119/17 64/136/17
f 106/204/19 104/201/19 136/257/19 138/261/19
f 85/170/26 87/173/26 20/43/26 24/51/26
f 124/233/28 122/230/28 154/295/28 156/299/28
f 103/199/3 105/202/3 137/259/3 135/255/3
f 72/149/2 70/146/2 54/115/2 50/107/2
f 121/228/12 123/231/12 155/297/12 153/293/12
f 90/178/11 88/175/11 18/39/11 14/30/11
f 69/145/35 67/142/35 65/138/35
f 65/138/35 127/239/35 69/145/35
f 127/239/35 125/235/35 69/145/35
f 125/235/35 123/232/35 121/229/35
f 121/229/35 119/226/35 117/223/35
f 117/223/35 115/220/35 113/216/35
f 113/216/35 111/212/35 117/223/35
f 111/212/35 109/209/35 117/223/35
f 109/209/35 107/206/35 105/203/35
f 105/203/35 103/200/35 101/197/35
f 101/197/35 99/194/35 97/190/35
f 97/190/35 95/187/35 101/197/35
f 95/187/35 93/183/35 101/197/35
f 93/183/35 91/180/35 89/177/35
f 89/177/35 87/174/35 85/171/35
f 85/171/35 83/168/35 81/164/35
f 81/164/35 79/160/35 85/171/35
f 79/160/35 77/157/35 85/171/35
f 77/157/35 75/154/35 73/151/35
f 73/151/35 71/148/35 69/145/35
f 125/235/35 121/229/35 69/145/35
f 121/229/35 117/223/35 69/145/35
f 109/209/35 105/203/35 117/223/35
f 105/203/35 101/197/35 117/223/35
f 93/183/35 89/177/35 101/197/35
f 89/177/35 85/171/35 101/197/35
f 77/157/35 73/151/35 85/171/35
f 73/151/35 69/145/35 85/171/35
f 69/145/35 117/223/35 101/197/35
f 63/134/34 1/3/34 3/7/34
f 3/7/34 5/12/34 7/16/34
f 7/16/34 9/20/34 11/24/34
f 11/24/34 13/28/34 15/32/34
f 15/32/34 17/37/34 19/41/34
f 19/41/34 21/45/34 23/49/34
f 23/49/34 25/53/34 27/57/34
f 27/57/34 29/61/34 31/66/34
f 31/66/34 33/72/34 35/76/34
f 35/76/34 37/80/34 39/84/34
f 39/84/34 41/88/34 43/92/34
f 43/92/34 45/96/34 47/100/34
f 47/100/34 49/105/34 51/109/34
f 51/109/34 53/113/34 55/117/34
f 55/117/34 57/121/34 59/125/34
f 59/125/34 61/130/34 63/134/34
f 63/134/34 3/7/34 15/32/34
f 3/7/34 7/16/34 15/32/34
f 7/16/34 11/24/34 15/32/34
f 15/32/34 19/41/34 31/66/34
f 19/41/34 23/49/34 31/66/34
f 23/49/34 27/57/34 31/66/34
f 31/66/34 35/76/34 47/100/34
f 35/76/34 39/84/34 47/100/34
f 39/84/34 43/92/34 47/100/34
f 47/100/34 51/109/34 63/134/34
f 51/109/34 55/117/34 63/134/34
f 55/117/34 59/125/34 63/134/34
f 63/134/34 15/32/34 31/66/34
